<?xml version="1.0" encoding="UTF-8"?>
<svg overflow="hidden" viewBox="0 0 2374 725" xml:space="preserve" xmlns="http://www.w3.org/2000/svg"><g transform="translate(-728 -147)"><rect x="1101.5" y="761.5" width="446" height="89" fill="currentColor" fill-opacity=".2" stroke="currentColor" stroke-miterlimit="8" stroke-width="6.875"/><text transform="translate(1157 825)" fill="currentColor" font-size="55" font-weight="400">return addr</text><rect x="1101.5" y="671.5" width="446" height="90" fill="none" stroke="currentColor" stroke-miterlimit="8" stroke-width="6.875"/><text transform="translate(1141.8 735)" fill="currentColor" font-size="55" font-weight="400">previous rbp</text><rect x="1101.5" y="582.5" width="446" height="89" fill="none" stroke="currentColor" stroke-miterlimit="8" stroke-width="6.875"/><text transform="translate(1268.4 646)" fill="currentColor" font-size="55" font-weight="400">arg</text><text transform="translate(1359.5 659)" fill="currentColor" font-size="37" font-weight="400">n</text><rect x="1101.5" y="493.5" width="446" height="89" fill="none" stroke="currentColor" stroke-miterlimit="8" stroke-width="6.875"/><text transform="translate(1278.5 556)" fill="currentColor" font-size="55" font-weight="400">...</text><rect x="1101.5" y="403.5" width="446" height="90" fill="none" stroke="currentColor" stroke-miterlimit="8" stroke-width="6.875"/><text transform="translate(1268.4 467)" fill="currentColor" font-size="55" font-weight="400">arg</text><text transform="translate(1359.5 480)" fill="currentColor" font-size="37" font-weight="400">1</text><rect x="1101.5" y="314.5" width="446" height="89" fill="none" stroke="currentColor" stroke-miterlimit="8" stroke-width="6.875"/><text transform="translate(1278.5 378)" fill="currentColor" font-size="55" font-weight="400">foo</text><text transform="translate(865.14 378)" fill="#4E95D9" font-size="55" font-weight="400">rsp</text><path d="m988.5 357.21 46.63 1e-3v4.583h-46.63zm46.63 2.292-9.17-13.75 27.5 13.75-27.5 13.75z" fill="#4E95D9"/><text transform="translate(863.42 731)" fill="currentColor" font-size="55" font-weight="400">rbp</text><path d="m988.5 710.21 46.63 1e-3v4.583h-46.63zm46.63 2.292-9.17-13.75 27.5 13.75-27.5 13.75z" fill="currentColor"/><rect x="2200.5" y="760.5" width="447" height="90" fill="currentColor" fill-opacity=".2" stroke="currentColor" stroke-miterlimit="8" stroke-width="6.875"/><text transform="translate(2256.4 824)" fill="currentColor" font-size="55" font-weight="400">return addr</text><rect x="2200.5" y="671.5" width="447" height="89" fill="none" stroke="currentColor" stroke-miterlimit="8" stroke-width="6.875"/><text transform="translate(2241.2 735)" fill="currentColor" font-size="55" font-weight="400">previous rbp</text><rect x="2200.5" y="582.5" width="447" height="89" fill="none" stroke="currentColor" stroke-miterlimit="8" stroke-width="6.875"/><text transform="translate(2367.9 645)" fill="currentColor" font-size="55" font-weight="400">arg</text><text transform="translate(2459 658)" fill="currentColor" font-size="37" font-weight="400">n</text><rect x="2200.5" y="492.5" width="447" height="90" fill="none" stroke="currentColor" stroke-miterlimit="8" stroke-width="6.875"/><text transform="translate(2377.9 556)" fill="currentColor" font-size="55" font-weight="400">...</text><rect x="2200.5" y="403.5" width="447" height="89" fill="none" stroke="currentColor" stroke-miterlimit="8" stroke-width="6.875"/><text transform="translate(2367.9 466)" fill="currentColor" font-size="55" font-weight="400">arg</text><text transform="translate(2459 479)" fill="currentColor" font-size="37" font-weight="400">1</text><rect x="2200.5" y="313.5" width="447" height="90" fill="none" stroke="currentColor" stroke-miterlimit="8" stroke-width="6.875"/><text transform="translate(2377.9 377)" fill="currentColor" font-size="55" font-weight="400">foo</text><text transform="translate(1964.6 288)" fill="#4E95D9" font-size="55" font-weight="400">rsp</text><path transform="matrix(1 0 0 -1 2738.5 402.95)" d="m3.4375-5.4543e-6 3.3e-4 209.12h-6.875l-3.3e-4 -209.11zm-3.4372 209.12 13.75-9.167-13.75 27.5-13.75-27.5z" fill="currentColor"/><text transform="translate(2777 244)" fill="currentColor" font-size="46" font-weight="400">Low address</text><path d="m2087.5 267.21 46.63 1e-3v4.583h-46.63zm46.63 2.292-9.17-13.75 27.5 13.75-27.5 13.75z" fill="#4E95D9"/><text transform="translate(1962.8 731)" fill="currentColor" font-size="55" font-weight="400">rbp</text><path d="m2087.5 710.21 46.63 1e-3v4.583h-46.63zm46.63 2.292-9.17-13.75 27.5 13.75-27.5 13.75z" fill="currentColor"/><rect x="2200.5" y="224.5" width="447" height="89" fill="none" stroke="#4E95D9" stroke-miterlimit="8" stroke-width="6.875"/><text transform="translate(2377.9 288)" fill="#4E95D9" font-size="55" font-weight="400">bar</text><path d="m1624.5 564.06h285.62v6.875h-285.62zm285.62 3.437-9.16-13.75 27.5 13.75-27.5 13.75z" fill="#4E95D9"/><text transform="translate(1622.9 534)" fill="#4E95D9" font-size="46" font-weight="400">push bar</text></g></svg>
