<?xml version="1.0" encoding="UTF-8"?>
<svg overflow="hidden" viewBox="0 0 2374 725" xml:space="preserve" xmlns="http://www.w3.org/2000/svg"><g transform="translate(-728 -1279)"><rect x="1101.5" y="1893.5" width="446" height="89" fill="currentColor" fill-opacity=".2" stroke="currentColor" stroke-miterlimit="8" stroke-width="6.875"/><text transform="translate(1157 1957)" fill="currentColor" font-size="55" font-weight="400">return addr</text><rect x="1101.5" y="1804.5" width="446" height="89" fill="none" stroke="currentColor" stroke-miterlimit="8" stroke-width="6.875"/><text transform="translate(1141.8 1867)" fill="currentColor" font-size="55" font-weight="400">previous rbp</text><rect x="1101.5" y="1714.5" width="446" height="90" fill="none" stroke="currentColor" stroke-miterlimit="8" stroke-width="6.875"/><text transform="translate(1268.4 1778)" fill="currentColor" font-size="55" font-weight="400">arg</text><text transform="translate(1359.5 1791)" fill="currentColor" font-size="37" font-weight="400">n</text><rect x="1101.5" y="1625.5" width="446" height="89" fill="none" stroke="currentColor" stroke-miterlimit="8" stroke-width="6.875"/><text transform="translate(1278.5 1688)" fill="currentColor" font-size="55" font-weight="400">...</text><rect x="1101.5" y="1535.5" width="446" height="90" fill="none" stroke="currentColor" stroke-miterlimit="8" stroke-width="6.875"/><text transform="translate(1268.4 1599)" fill="currentColor" font-size="55" font-weight="400">arg</text><text transform="translate(1359.5 1612)" fill="currentColor" font-size="37" font-weight="400">1</text><rect x="1101.5" y="1446.5" width="446" height="89" fill="none" stroke="currentColor" stroke-miterlimit="8" stroke-width="6.875"/><text transform="translate(1278.5 1510)" fill="currentColor" font-size="55" font-weight="400">foo</text><text transform="translate(863.42 1863)" fill="currentColor" font-size="55" font-weight="400">rbp</text><path d="m988.5 1842.2h46.63v4.58h-46.63zm46.63 2.29-9.17-13.75 27.5 13.75-27.5 13.75z" fill="currentColor"/><rect x="2200.5" y="1892.5" width="447" height="90" fill="currentColor" fill-opacity=".2" stroke="currentColor" stroke-miterlimit="8" stroke-width="6.875"/><text transform="translate(2256.4 1956)" fill="currentColor" font-size="55" font-weight="400">return addr</text><rect x="2200.5" y="1803.5" width="447" height="89" fill="none" stroke="currentColor" stroke-miterlimit="8" stroke-width="6.875"/><text transform="translate(2241.2 1867)" fill="currentColor" font-size="55" font-weight="400">previous rbp</text><rect x="2200.5" y="1714.5" width="447" height="89" fill="none" stroke="currentColor" stroke-miterlimit="8" stroke-width="6.875"/><text transform="translate(2367.9 1777)" fill="currentColor" font-size="55" font-weight="400">arg</text><text transform="translate(2459 1790)" fill="currentColor" font-size="37" font-weight="400">n</text><rect x="2200.5" y="1624.5" width="447" height="90" fill="none" stroke="currentColor" stroke-miterlimit="8" stroke-width="6.875"/><text transform="translate(2377.9 1688)" fill="currentColor" font-size="55" font-weight="400">...</text><rect x="2200.5" y="1535.5" width="447" height="89" fill="none" stroke="currentColor" stroke-miterlimit="8" stroke-width="6.875"/><text transform="translate(2367.9 1599)" fill="currentColor" font-size="55" font-weight="400">arg</text><text transform="translate(2459 1612)" fill="currentColor" font-size="37" font-weight="400">1</text><rect x="2200.5" y="1445.5" width="447" height="90" fill="none" stroke="currentColor" stroke-miterlimit="8" stroke-width="6.875"/><text transform="translate(2377.9 1509)" fill="currentColor" font-size="55" font-weight="400">foo</text><path transform="matrix(1 0 0 -1 2738.5 1535)" d="m3.4375-5.4543e-6 3.3e-4 209.12h-6.875l-3.3e-4 -209.11zm-3.4372 209.12 13.75-9.167-13.75 27.5-13.75-27.5z" fill="currentColor"/><text transform="translate(2777 1376)" fill="currentColor" font-size="46" font-weight="400">Low address</text><text transform="translate(1962.8 1863)" fill="currentColor" font-size="55" font-weight="400">rbp</text><path d="m2087.5 1842.2h46.63v4.58h-46.63zm46.63 2.29-9.17-13.75 27.5 13.75-27.5 13.75z" fill="currentColor"/><path d="m1624.5 1696.1h285.62v6.88h-285.62zm285.62 3.44-9.16-13.75 27.5 13.75-27.5 13.75z" fill="#4E95D9"/><text transform="translate(1622.9 1666)" fill="#4E95D9" font-size="46" font-weight="400">pop</text><text transform="translate(865.14 1420)" fill="#4E95D9" font-size="55" font-weight="400">rsp</text><path d="m988.5 1399.2h46.63v4.58h-46.63zm46.63 2.29-9.17-13.75 27.5 13.75-27.5 13.75z" fill="#4E95D9"/><rect x="1101.5" y="1356.5" width="446" height="89" fill="none" stroke="#4E95D9" stroke-miterlimit="8" stroke-width="6.875"/><text transform="translate(1278.5 1420)" fill="#4E95D9" font-size="55" font-weight="400">bar</text><text transform="translate(1964.6 1510)" fill="#4E95D9" font-size="55" font-weight="400">rsp</text><path d="m2087.5 1489.2h46.63v4.58h-46.63zm46.63 2.29-9.17-13.75 27.5 13.75-27.5 13.75z" fill="#4E95D9"/></g></svg>
