<?xml version="1.0" encoding="UTF-8"?>
<svg overflow="hidden" viewBox="0 0 3102 906" xml:space="preserve" xmlns="http://www.w3.org/2000/svg"><g transform="translate(-473 -1429)"><rect x="846.5" y="2222.5" width="447" height="89" fill="none" stroke="#8ED973" stroke-miterlimit="8" stroke-width="6.875"/><text transform="translate(1024.1 2286)" fill="#8ED973" font-size="55" font-weight="400">arg</text><rect x="846.5" y="2133.5" width="447" height="89" fill="#D86ECC" fill-opacity=".2" stroke="#D86ECC" stroke-miterlimit="8" stroke-width="6.875"/><text transform="translate(902.63 2196)" fill="#D86ECC" font-size="55" font-weight="400">return addr</text><rect x="846.5" y="2043.5" width="447" height="90" fill="none" stroke="#D86ECC" stroke-miterlimit="8" stroke-width="6.875"/><text transform="translate(887.45 2107)" fill="#D86ECC" font-size="55" font-weight="400">previous rbp</text><rect x="846.5" y="1954.5" width="447" height="89" fill="none" stroke="#D86ECC" stroke-miterlimit="8" stroke-width="6.875"/><text transform="translate(1014.1 2018)" fill="#D86ECC" font-size="55" font-weight="400">arg</text><text transform="translate(1105.2 2031)" fill="#D86ECC" font-size="37" font-weight="400">m</text><rect x="846.5" y="1864.5" width="447" height="90" fill="none" stroke="#D86ECC" stroke-miterlimit="8" stroke-width="6.875"/><text transform="translate(1024.1 1928)" fill="#D86ECC" font-size="55" font-weight="400">...</text><rect x="846.5" y="1775.5" width="447" height="89" fill="none" stroke="#D86ECC" stroke-miterlimit="8" stroke-width="6.875"/><text transform="translate(1014.1 1839)" fill="#D86ECC" font-size="55" font-weight="400">arg</text><text transform="translate(1105.2 1852)" fill="#D86ECC" font-size="37" font-weight="400">1</text><rect x="846.5" y="1686.5" width="447" height="89" fill="currentColor" fill-opacity=".2" stroke="currentColor" stroke-miterlimit="8" stroke-width="6.875"/><text transform="translate(902.63 1749)" fill="currentColor" font-size="55" font-weight="400">return addr</text><rect x="846.5" y="1596.5" width="447" height="90" fill="none" stroke="currentColor" stroke-miterlimit="8" stroke-width="6.875"/><text transform="translate(887.45 1660)" fill="currentColor" font-size="55" font-weight="400">previous rbp</text><text transform="translate(1326.1 1657)" fill="currentColor" font-size="55" font-weight="400">调用者的基地址</text><text transform="translate(1326.1 1750)" fill="currentColor" font-size="55" font-weight="400">返回的指令地址</text><path transform="matrix(1 0 0 -1 1384.5 1595.6)" d="m3.4375-8.9849e-6 3.1e-4 119.74h-6.875l-3.1e-4 -119.74zm-3.4372 119.74 13.75-9.167-13.75 27.5-13.75-27.5z" fill="currentColor"/><text transform="translate(1423.1 1525)" fill="currentColor" font-size="46" font-weight="400">Low address</text><path d="m733.5 1635.2h46.627v4.58h-46.627zm46.627 2.29-9.166-13.75 27.5 13.75-27.5 13.75z" fill="currentColor"/><path d="m1788.5 1958.1h307.97v6.88h-307.97zm307.97 3.44-9.17-13.75 27.5 13.75-27.5 13.75z" fill="#4E95D9"/><text transform="translate(1786.8 1928)" fill="#4E95D9" font-size="46" font-weight="400">mov rbp, rsp</text><text transform="translate(609.04 1656)" fill="currentColor" font-size="55" font-weight="400">rsp</text><path transform="matrix(1 0 0 -1 3144.5 1595.6)" d="m3.4375-8.9849e-6 3.1e-4 119.74h-6.875l-3.1e-4 -119.74zm-3.4372 119.74 13.75-9.167-13.75 27.5-13.75-27.5z" fill="currentColor"/><text transform="translate(3183.1 1525)" fill="currentColor" font-size="46" font-weight="400">Low address</text><text transform="translate(609.04 2107)" fill="currentColor" font-size="55" font-weight="400">rbp</text><path d="m733.5 2086.2h46.627v4.58h-46.627zm46.627 2.29-9.166-13.75 27.5 13.75-27.5 13.75z" fill="currentColor"/><rect x="2608.5" y="2224.5" width="447" height="90" fill="none" stroke="#8ED973" stroke-miterlimit="8" stroke-width="6.875"/><text transform="translate(2786.4 2288)" fill="#8ED973" font-size="55" font-weight="400">arg</text><rect x="2608.5" y="2135.5" width="447" height="89" fill="#D86ECC" fill-opacity=".2" stroke="#D86ECC" stroke-miterlimit="8" stroke-width="6.875"/><text transform="translate(2664.9 2199)" fill="#D86ECC" font-size="55" font-weight="400">return addr</text><rect x="2608.5" y="2045.5" width="447" height="90" fill="none" stroke="#D86ECC" stroke-miterlimit="8" stroke-width="6.875"/><text transform="translate(2649.7 2109)" fill="#D86ECC" font-size="55" font-weight="400">previous rbp</text><rect x="2608.5" y="1956.5" width="447" height="89" fill="none" stroke="#D86ECC" stroke-miterlimit="8" stroke-width="6.875"/><text transform="translate(2776.4 2020)" fill="#D86ECC" font-size="55" font-weight="400">arg</text><text transform="translate(2867.4 2033)" fill="#D86ECC" font-size="37" font-weight="400">m</text><rect x="2608.5" y="1867.5" width="447" height="89" fill="none" stroke="#D86ECC" stroke-miterlimit="8" stroke-width="6.875"/><text transform="translate(2786.4 1930)" fill="#D86ECC" font-size="55" font-weight="400">...</text><rect x="2608.5" y="1777.5" width="447" height="90" fill="none" stroke="#D86ECC" stroke-miterlimit="8" stroke-width="6.875"/><text transform="translate(2776.4 1841)" fill="#D86ECC" font-size="55" font-weight="400">arg</text><text transform="translate(2867.4 1854)" fill="#D86ECC" font-size="37" font-weight="400">1</text><rect x="2608.5" y="1688.5" width="447" height="89" fill="currentColor" fill-opacity=".2" stroke="currentColor" stroke-miterlimit="8" stroke-width="6.875"/><text transform="translate(2664.9 1752)" fill="currentColor" font-size="55" font-weight="400">return addr</text><rect x="2608.5" y="1599.5" width="447" height="89" fill="none" stroke="currentColor" stroke-miterlimit="8" stroke-width="6.875"/><text transform="translate(2649.7 1662)" fill="currentColor" font-size="55" font-weight="400">previous rbp</text><text transform="translate(3088.4 1659)" fill="currentColor" font-size="55" font-weight="400">调用者的基地址</text><text transform="translate(3088.4 1752)" fill="currentColor" font-size="55" font-weight="400">返回的指令地址</text><path d="m2496.5 1637.2h46.63v4.58h-46.63zm46.63 2.29-9.17-13.75 27.5 13.75-27.5 13.75z" fill="#4E95D9"/><text transform="translate(2219.6 1659)" fill="currentColor" font-size="55" font-weight="400">rsp, </text><text transform="translate(2371.5 1659)" fill="#4E95D9" font-size="55" font-weight="400">rbp</text></g></svg>
