<?xml version="1.0" encoding="UTF-8"?>
<svg overflow="hidden" viewBox="0 0 3231 1260" xml:space="preserve" xmlns="http://www.w3.org/2000/svg"><g transform="translate(-344 1)"><rect x="846.5" y="1148.5" width="447" height="90" fill="none" stroke="#8ED973" stroke-miterlimit="8" stroke-width="6.875"/><text transform="translate(1024.1 1212)" fill="#8ED973" font-size="55" font-weight="400">arg</text><rect x="846.5" y="1059.5" width="447" height="89" fill="#D86ECC" fill-opacity=".2" stroke="#D86ECC" stroke-miterlimit="8" stroke-width="6.875"/><text transform="translate(902.63 1122)" fill="#D86ECC" font-size="55" font-weight="400">return addr</text><rect x="846.5" y="969.5" width="447" height="90" fill="none" stroke="#D86ECC" stroke-miterlimit="8" stroke-width="6.875"/><text transform="translate(887.45 1033)" fill="#D86ECC" font-size="55" font-weight="400">previous rbp</text><rect x="846.5" y="880.5" width="447" height="89" fill="none" stroke="#D86ECC" stroke-miterlimit="8" stroke-width="6.875"/><text transform="translate(1014.1 944)" fill="#D86ECC" font-size="55" font-weight="400">arg</text><text transform="translate(1105.2 957)" fill="#D86ECC" font-size="37" font-weight="400">m</text><rect x="846.5" y="791.5" width="447" height="89" fill="none" stroke="#D86ECC" stroke-miterlimit="8" stroke-width="6.875"/><text transform="translate(1024.1 854)" fill="#D86ECC" font-size="55" font-weight="400">...</text><rect x="846.5" y="701.5" width="447" height="90" fill="none" stroke="#D86ECC" stroke-miterlimit="8" stroke-width="6.875"/><text transform="translate(1014.1 765)" fill="#D86ECC" font-size="55" font-weight="400">arg</text><text transform="translate(1105.2 778)" fill="#D86ECC" font-size="37" font-weight="400">1</text><rect x="846.5" y="612.5" width="447" height="89" fill="currentColor" fill-opacity=".2" stroke="currentColor" stroke-miterlimit="8" stroke-width="6.875"/><text transform="translate(902.63 676)" fill="currentColor" font-size="55" font-weight="400">return addr</text><rect x="846.5" y="523.5" width="447" height="89" fill="none" stroke="currentColor" stroke-miterlimit="8" stroke-width="6.875"/><text transform="translate(887.45 586)" fill="currentColor" font-size="55" font-weight="400">previous rbp</text><rect x="846.5" y="433.5" width="447" height="90" fill="none" stroke="currentColor" stroke-miterlimit="8" stroke-width="6.875"/><text transform="translate(1014.1 497)" fill="currentColor" font-size="55" font-weight="400">arg</text><text transform="translate(1105.2 510)" fill="currentColor" font-size="37" font-weight="400">n</text><rect x="846.5" y="344.5" width="447" height="89" fill="none" stroke="currentColor" stroke-miterlimit="8" stroke-width="6.875"/><text transform="translate(1024.1 407)" fill="currentColor" font-size="55" font-weight="400">...</text><rect x="846.5" y="254.5" width="447" height="90" fill="none" stroke="currentColor" stroke-miterlimit="8" stroke-width="6.875"/><text transform="translate(1014.1 318)" fill="currentColor" font-size="55" font-weight="400">arg</text><text transform="translate(1105.2 331)" fill="currentColor" font-size="37" font-weight="400">2</text><rect x="846.5" y="165.5" width="447" height="89" fill="none" stroke="currentColor" stroke-miterlimit="8" stroke-width="6.875"/><text transform="translate(1014.1 229)" fill="currentColor" font-size="55" font-weight="400">arg</text><text transform="translate(1105.2 242)" fill="currentColor" font-size="37" font-weight="400">1</text><text transform="translate(609.17 229)" fill="#4E95D9" font-size="55" font-weight="400">rsp</text><text transform="translate(1326.1 583)" fill="currentColor" font-size="55" font-weight="400">调用者的基地址</text><text transform="translate(1326.1 676)" fill="currentColor" font-size="55" font-weight="400">返回的指令地址</text><path transform="matrix(1 0 0 -1 1384.5 254.95)" d="m3.4375-5.4543e-6 3.3e-4 209.12h-6.875l-3.3e-4 -209.11zm-3.4372 209.12 13.75-9.167-13.75 27.5-13.75-27.5z" fill="currentColor"/><text transform="translate(1423.1 95)" fill="currentColor" font-size="46" font-weight="400">Low address</text><path d="m733.5 208.21h46.627v4.584h-46.627zm46.627 2.292-9.166-13.75 27.5 13.75-27.5 13.75z" fill="#4E95D9"/><text transform="translate(609.17 582)" fill="currentColor" font-size="55" font-weight="400">rbp</text><path d="m733.5 561.21h46.627v4.584h-46.627zm46.627 2.292-9.166-13.75 27.5 13.75-27.5 13.75z" fill="currentColor"/><rect x="2608.5" y="1148.5" width="447" height="90" fill="none" stroke="#8ED973" stroke-miterlimit="8" stroke-width="6.875"/><text transform="translate(2786.4 1212)" fill="#8ED973" font-size="55" font-weight="400">arg</text><rect x="2608.5" y="1059.5" width="447" height="89" fill="#D86ECC" fill-opacity=".2" stroke="#D86ECC" stroke-miterlimit="8" stroke-width="6.875"/><text transform="translate(2664.9 1122)" fill="#D86ECC" font-size="55" font-weight="400">return addr</text><rect x="2608.5" y="969.5" width="447" height="90" fill="none" stroke="#D86ECC" stroke-miterlimit="8" stroke-width="6.875"/><text transform="translate(2649.7 1033)" fill="#D86ECC" font-size="55" font-weight="400">previous rbp</text><rect x="2608.5" y="880.5" width="447" height="89" fill="none" stroke="#D86ECC" stroke-miterlimit="8" stroke-width="6.875"/><text transform="translate(2776.4 944)" fill="#D86ECC" font-size="55" font-weight="400">arg</text><text transform="translate(2867.4 957)" fill="#D86ECC" font-size="37" font-weight="400">m</text><rect x="2608.5" y="791.5" width="447" height="89" fill="none" stroke="#D86ECC" stroke-miterlimit="8" stroke-width="6.875"/><text transform="translate(2786.4 854)" fill="#D86ECC" font-size="55" font-weight="400">...</text><rect x="2608.5" y="701.5" width="447" height="90" fill="none" stroke="#D86ECC" stroke-miterlimit="8" stroke-width="6.875"/><text transform="translate(2776.4 765)" fill="#D86ECC" font-size="55" font-weight="400">arg</text><text transform="translate(2867.4 778)" fill="#D86ECC" font-size="37" font-weight="400">1</text><path transform="matrix(1 0 0 -1 3144.5 254.95)" d="m3.4375-5.4543e-6 3.3e-4 209.12h-6.875l-3.3e-4 -209.11zm-3.4372 209.12 13.75-9.167-13.75 27.5-13.75-27.5z" fill="currentColor"/><text transform="translate(3183.1 95)" fill="currentColor" font-size="46" font-weight="400">Low address</text><rect x="2608.5" y="612.5" width="447" height="89" fill="currentColor" fill-opacity=".2" stroke="currentColor" stroke-miterlimit="8" stroke-width="6.875"/><text transform="translate(2664.9 676)" fill="currentColor" font-size="55" font-weight="400">return addr</text><rect x="2608.5" y="523.5" width="447" height="89" fill="none" stroke="currentColor" stroke-miterlimit="8" stroke-width="6.875"/><text transform="translate(2649.7 586)" fill="currentColor" font-size="55" font-weight="400">previous rbp</text><text transform="translate(3088.4 583)" fill="currentColor" font-size="55" font-weight="400">调用者的基地址</text><text transform="translate(3088.4 676)" fill="currentColor" font-size="55" font-weight="400">返回的指令地址</text><path d="m2496.5 561.21h46.63v4.584h-46.63zm46.63 2.292-9.17-13.75 27.5 13.75-27.5 13.75z" fill="#4E95D9"/><text transform="translate(2219.6 583)" fill="#4E95D9" font-size="55" font-weight="400">rsp</text><text transform="translate(2310.7 583)" fill="currentColor" font-size="55" font-weight="400">, rbp</text><path d="m1788.5 884.06h307.97v6.875h-307.97zm307.97 3.437-9.17-13.75 27.5 13.75-27.5 13.75z" fill="#4E95D9"/><text transform="translate(1786.8 854)" fill="#4E95D9" font-size="46" font-weight="400">mov rsp, rbp</text><rect x="2608.5" y="433.5" width="447" height="90" fill="none" stroke="currentColor" stroke-dasharray="20.625 6.875" stroke-linecap="square" stroke-miterlimit="8" stroke-width="6.875"/><text transform="translate(2776.4 497)" fill="currentColor" font-size="55" font-weight="400">arg</text><text transform="translate(2867.4 510)" fill="currentColor" font-size="37" font-weight="400">n</text><rect x="2608.5" y="344.5" width="447" height="89" fill="none" stroke="currentColor" stroke-dasharray="20.625 6.875" stroke-linecap="square" stroke-miterlimit="8" stroke-width="6.875"/><text transform="translate(2786.4 407)" fill="currentColor" font-size="55" font-weight="400">...</text><rect x="2608.5" y="254.5" width="447" height="90" fill="none" stroke="currentColor" stroke-dasharray="20.625 6.875" stroke-linecap="square" stroke-miterlimit="8" stroke-width="6.875"/><text transform="translate(2776.4 318)" fill="currentColor" font-size="55" font-weight="400">arg</text><text transform="translate(2867.4 331)" fill="currentColor" font-size="37" font-weight="400">2</text><rect x="2608.5" y="165.5" width="447" height="89" fill="none" stroke="currentColor" stroke-dasharray="20.625 6.875" stroke-linecap="square" stroke-miterlimit="8" stroke-width="6.875"/><text transform="translate(2776.4 229)" fill="currentColor" font-size="55" font-weight="400">arg</text><text transform="translate(2867.4 242)" fill="currentColor" font-size="37" font-weight="400">1</text></g></svg>
