<?xml version="1.0" encoding="UTF-8"?>
<svg overflow="hidden" viewBox="0 0 1339 731" xml:space="preserve" xmlns="http://www.w3.org/2000/svg"><g transform="translate(-2598 -787)"><rect x="2971.5" y="1407.5" width="446" height="89" fill="none" stroke="#8ED973" stroke-miterlimit="8" stroke-width="6.875"/><text transform="translate(3148.5 1471)" fill="#8ED973" font-size="55" font-weight="400">arg</text><rect x="2971.5" y="1318.5" width="446" height="89" fill="#D86ECC" fill-opacity=".2" stroke="#D86ECC" stroke-miterlimit="8" stroke-width="6.875"/><text transform="translate(3027 1381)" fill="#D86ECC" font-size="55" font-weight="400">return addr</text><rect x="2971.5" y="1228.5" width="446" height="90" fill="none" stroke="#D86ECC" stroke-miterlimit="8" stroke-width="6.875"/><text transform="translate(3011.8 1292)" fill="#D86ECC" font-size="55" font-weight="400">previous rbp</text><rect x="2971.5" y="1139.5" width="446" height="89" fill="none" stroke="#D86ECC" stroke-miterlimit="8" stroke-width="6.875"/><text transform="translate(3138.4 1203)" fill="#D86ECC" font-size="55" font-weight="400">arg</text><text transform="translate(3229.5 1216)" fill="#D86ECC" font-size="37" font-weight="400">m</text><rect x="2971.5" y="1050.5" width="446" height="89" fill="none" stroke="#D86ECC" stroke-miterlimit="8" stroke-width="6.875"/><text transform="translate(3148.5 1113)" fill="#D86ECC" font-size="55" font-weight="400">...</text><rect x="2971.5" y="960.5" width="446" height="90" fill="none" stroke="#D86ECC" stroke-miterlimit="8" stroke-width="6.875"/><text transform="translate(3138.4 1024)" fill="#D86ECC" font-size="55" font-weight="400">arg</text><text transform="translate(3229.5 1037)" fill="#D86ECC" font-size="37" font-weight="400">1</text><text transform="translate(2735.1 1026)" fill="#D86ECC" font-size="55" font-weight="400">rsp</text><path d="m2858.5 1005.2h46.63v4.58h-46.63zm46.63 2.29-9.17-13.75 27.5 13.75-27.5 13.75z" fill="#D86ECC"/><text transform="translate(2733.4 1292)" fill="#D86ECC" font-size="55" font-weight="400">rbp</text><path d="m2858.5 1271.2h46.63v4.58h-46.63zm46.63 2.29-9.17-13.75 27.5 13.75-27.5 13.75z" fill="#D86ECC"/><text transform="translate(3450.4 1289)" fill="#D86ECC" font-size="55" font-weight="400">调用者的基地址</text><text transform="translate(3450.4 1382)" fill="#D86ECC" font-size="55" font-weight="400">返回的指令地址</text><path transform="matrix(1 0 0 -1 3506.5 1043)" d="m3.4375-5.4543e-6 3.3e-4 209.12h-6.875l-3.3e-4 -209.11zm-3.4372 209.12 13.75-9.167-13.75 27.5-13.75-27.5z" fill="currentColor"/><text transform="translate(3545.2 883)" fill="currentColor" font-size="46" font-weight="400">Low address</text></g></svg>
