<?xml version="1.0" encoding="UTF-8"?>
<svg overflow="hidden" viewBox="0 0 1339 1260" xml:space="preserve" xmlns="http://www.w3.org/2000/svg"><g transform="translate(-836 -258)"><rect x="1208.5" y="1407.5" width="447" height="89" fill="none" stroke="#8ED973" stroke-miterlimit="8" stroke-width="6.875"/><text transform="translate(1386.2 1471)" fill="#8ED973" font-size="55" font-weight="400">arg</text><rect x="1208.5" y="1318.5" width="447" height="89" fill="#D86ECC" fill-opacity=".2" stroke="#D86ECC" stroke-miterlimit="8" stroke-width="6.875"/><text transform="translate(1264.7 1381)" fill="#D86ECC" font-size="55" font-weight="400">return addr</text><rect x="1208.5" y="1228.5" width="447" height="90" fill="none" stroke="#D86ECC" stroke-miterlimit="8" stroke-width="6.875"/><text transform="translate(1249.5 1292)" fill="#D86ECC" font-size="55" font-weight="400">previous rbp</text><rect x="1208.5" y="1139.5" width="447" height="89" fill="none" stroke="#D86ECC" stroke-miterlimit="8" stroke-width="6.875"/><text transform="translate(1376.2 1203)" fill="#D86ECC" font-size="55" font-weight="400">arg</text><text transform="translate(1467.2 1216)" fill="#D86ECC" font-size="37" font-weight="400">m</text><rect x="1208.5" y="1050.5" width="447" height="89" fill="none" stroke="#D86ECC" stroke-miterlimit="8" stroke-width="6.875"/><text transform="translate(1386.2 1113)" fill="#D86ECC" font-size="55" font-weight="400">...</text><rect x="1208.5" y="960.5" width="447" height="90" fill="none" stroke="#D86ECC" stroke-miterlimit="8" stroke-width="6.875"/><text transform="translate(1376.2 1024)" fill="#D86ECC" font-size="55" font-weight="400">arg</text><text transform="translate(1467.2 1037)" fill="#D86ECC" font-size="37" font-weight="400">1</text><rect x="1208.5" y="871.5" width="447" height="89" fill="currentColor" fill-opacity=".2" stroke="currentColor" stroke-miterlimit="8" stroke-width="6.875"/><text transform="translate(1264.7 935)" fill="currentColor" font-size="55" font-weight="400">return addr</text><rect x="1208.5" y="781.5" width="447" height="90" fill="none" stroke="currentColor" stroke-miterlimit="8" stroke-width="6.875"/><text transform="translate(1249.5 845)" fill="currentColor" font-size="55" font-weight="400">previous rbp</text><rect x="1208.5" y="692.5" width="447" height="89" fill="none" stroke="currentColor" stroke-miterlimit="8" stroke-width="6.875"/><text transform="translate(1376.2 756)" fill="currentColor" font-size="55" font-weight="400">arg</text><text transform="translate(1467.2 769)" fill="currentColor" font-size="37" font-weight="400">n</text><rect x="1208.5" y="603.5" width="447" height="89" fill="none" stroke="currentColor" stroke-miterlimit="8" stroke-width="6.875"/><text transform="translate(1386.2 666)" fill="currentColor" font-size="55" font-weight="400">...</text><rect x="1208.5" y="513.5" width="447" height="90" fill="none" stroke="currentColor" stroke-miterlimit="8" stroke-width="6.875"/><text transform="translate(1376.2 577)" fill="currentColor" font-size="55" font-weight="400">arg</text><text transform="translate(1467.2 590)" fill="currentColor" font-size="37" font-weight="400">2</text><rect x="1208.5" y="424.5" width="447" height="89" fill="none" stroke="currentColor" stroke-miterlimit="8" stroke-width="6.875"/><text transform="translate(1376.2 488)" fill="currentColor" font-size="55" font-weight="400">arg</text><text transform="translate(1467.2 501)" fill="currentColor" font-size="37" font-weight="400">1</text><text transform="translate(972.84 488)" fill="currentColor" font-size="55" font-weight="400">rsp</text><text transform="translate(1688.2 842)" fill="currentColor" font-size="55" font-weight="400">调用者的基地址</text><text transform="translate(1688.2 935)" fill="currentColor" font-size="55" font-weight="400">返回的指令地址</text><path transform="matrix(1 0 0 -1 1746.5 513.95)" d="m3.4375-5.4543e-6 3.3e-4 209.12h-6.875l-3.3e-4 -209.11zm-3.4372 209.12 13.75-9.167-13.75 27.5-13.75-27.5z" fill="currentColor"/><text transform="translate(1785.2 354)" fill="currentColor" font-size="46" font-weight="400">Low address</text><path d="m1095.5 467.21 46.63 1e-3v4.583h-46.63zm46.63 2.292-9.17-13.75 27.5 13.75-27.5 13.75z" fill="currentColor"/><text transform="translate(971.13 841)" fill="currentColor" font-size="55" font-weight="400">rbp</text><path d="m1095.5 820.21 46.63 1e-3v4.583h-46.63zm46.63 2.292-9.17-13.75 27.5 13.75-27.5 13.75z" fill="currentColor"/></g></svg>
