<?xml version="1.0" encoding="UTF-8"?>
<svg overflow="hidden" viewBox="0 0 3231 982" xml:space="preserve" xmlns="http://www.w3.org/2000/svg"><g transform="translate(-344 -801)"><rect x="846.5" y="1507.5" width="447" height="89" fill="none" stroke="#8ED973" stroke-miterlimit="8" stroke-width="6.875"/><text transform="translate(1024.1 1571)" fill="#8ED973" font-size="55" font-weight="400">arg</text><rect x="846.5" y="1418.5" width="447" height="89" fill="#D86ECC" fill-opacity=".2" stroke="#D86ECC" stroke-miterlimit="8" stroke-width="6.875"/><text transform="translate(902.63 1481)" fill="#D86ECC" font-size="55" font-weight="400">returnaddr</text><rect x="846.5" y="1328.5" width="447" height="90" fill="none" stroke="#D86ECC" stroke-miterlimit="8" stroke-width="6.875"/><text transform="translate(887.45 1392)" fill="#D86ECC" font-size="55" font-weight="400">previousrbp</text><rect x="846.5" y="1239.5" width="447" height="89" fill="none" stroke="#D86ECC" stroke-miterlimit="8" stroke-width="6.875"/><text transform="translate(1014.1 1303)" fill="#D86ECC" font-size="55" font-weight="400">arg</text><text transform="translate(1105.2 1316)" fill="#D86ECC" font-size="37" font-weight="400">m</text><rect x="846.5" y="1149.5" width="447" height="90" fill="none" stroke="#D86ECC" stroke-miterlimit="8" stroke-width="6.875"/><text transform="translate(1024.1 1213)" fill="#D86ECC" font-size="55" font-weight="400">...</text><rect x="846.5" y="1060.5" width="447" height="89" fill="none" stroke="#D86ECC" stroke-miterlimit="8" stroke-width="6.875"/><text transform="translate(1014.1 1124)" fill="#D86ECC" font-size="55" font-weight="400">arg</text><text transform="translate(1105.2 1137)" fill="#D86ECC" font-size="37" font-weight="400">1</text><rect x="846.5" y="971.5" width="447" height="89" fill="#7F7F7F" fill-opacity=".2" stroke="#7F7F7F" stroke-miterlimit="8" stroke-width="6.875"/><text transform="translate(917.81 1034)" fill="#7F7F7F" font-size="55" font-weight="400">0x0d000721</text><text transform="translate(1326.1 1035)" fill="#7F7F7F" font-size="55" font-weight="400">返回的指令地址</text><path transform="matrix(1 0 0 -1 1384.5 967.57)" d="m3.4375-8.9849e-6 3.1e-4 119.74h-6.875l-3.1e-4 -119.74zm-3.4372 119.74 13.75-9.167-13.75 27.5-13.75-27.5z" fill="#7F7F7F"/><text transform="translate(1423.1 898)" fill="#7F7F7F" font-size="46" font-weight="400">Low address</text><rect x="2608.5" y="1507.5" width="447" height="89" fill="none" stroke="#8ED973" stroke-miterlimit="8" stroke-width="6.875"/><text transform="translate(2786.4 1571)" fill="#8ED973" font-size="55" font-weight="400">arg</text><rect x="2608.5" y="1418.5" width="447" height="89" fill="#D86ECC" fill-opacity=".2" stroke="#D86ECC" stroke-miterlimit="8" stroke-width="6.875"/><text transform="translate(2664.9 1481)" fill="#D86ECC" font-size="55" font-weight="400">returnaddr</text><rect x="2608.5" y="1328.5" width="447" height="90" fill="none" stroke="#D86ECC" stroke-miterlimit="8" stroke-width="6.875"/><text transform="translate(2649.7 1392)" fill="#D86ECC" font-size="55" font-weight="400">previousrbp</text><rect x="2608.5" y="1239.5" width="447" height="89" fill="none" stroke="#D86ECC" stroke-miterlimit="8" stroke-width="6.875"/><text transform="translate(2776.4 1303)" fill="#D86ECC" font-size="55" font-weight="400">arg</text><text transform="translate(2867.4 1316)" fill="#D86ECC" font-size="37" font-weight="400">m</text><rect x="2608.5" y="1149.5" width="447" height="90" fill="none" stroke="#D86ECC" stroke-miterlimit="8" stroke-width="6.875"/><text transform="translate(2786.4 1213)" fill="#D86ECC" font-size="55" font-weight="400">...</text><rect x="2608.5" y="1060.5" width="447" height="89" fill="none" stroke="#D86ECC" stroke-miterlimit="8" stroke-width="6.875"/><text transform="translate(2776.4 1124)" fill="#D86ECC" font-size="55" font-weight="400">arg</text><text transform="translate(2867.4 1137)" fill="#D86ECC" font-size="37" font-weight="400">1</text><path d="m2496.5 1103.2h46.63v4.58h-46.63zm46.63 2.29-9.17-13.75 27.5 13.75-27.5 13.75z" fill="#4E95D9"/><path d="m1788.5 1243.1h307.97v6.88h-307.97zm307.97 3.44-9.17-13.75 27.5 13.75-27.5 13.75z" fill="#4E95D9"/><text transform="translate(1786.8 1213)" fill="#4E95D9" font-size="46" font-weight="400">pop rip</text><path transform="matrix(1 0 0 -1 3144.5 967.57)" d="m3.4375-8.9849e-6 3.1e-4 119.74h-6.875l-3.1e-4 -119.74zm-3.4372 119.74 13.75-9.167-13.75 27.5-13.75-27.5z" fill="#7F7F7F"/><text transform="translate(3183.1 898)" fill="#7F7F7F" font-size="46" font-weight="400">Low address</text><text transform="translate(2371.3 1123)" fill="#4E95D9" font-size="55" font-weight="400">rsp</text><text transform="translate(2373 1392)" fill="#7F7F7F" font-size="55" font-weight="400">rbp</text><path d="m2496.5 1371.2h46.63v4.58h-46.63zm46.63 2.29-9.17-13.75 27.5 13.75-27.5 13.75z" fill="#7F7F7F"/><rect x="3101.5" y="1672.5" width="447" height="89" fill="none" stroke="#4E95D9" stroke-miterlimit="8" stroke-width="6.875"/><text transform="translate(3173 1736)" fill="#4E95D9" font-size="55" font-weight="400">0x0d000721</text><text transform="translate(2871.3 1736)" fill="#4E95D9" font-size="55" font-weight="400">rip</text><path d="m2994.5 1715.2h46.63v4.58h-46.63zm46.63 2.29-9.17-13.75 27.5 13.75-27.5 13.75z" fill="#4E95D9"/><rect x="1340.5" y="1671.5" width="447" height="89" fill="none" stroke="#7F7F7F" stroke-miterlimit="8" stroke-width="6.875"/><text transform="translate(1411.6 1734)" fill="#7F7F7F" font-size="55" font-weight="400">0x0d000930</text><text transform="translate(1110 1734)" fill="#7F7F7F" font-size="55" font-weight="400">rip</text><path d="m1233.5 1713.2h46.63v4.58h-46.63zm46.63 2.29-9.17-13.75 27.5 13.75-27.5 13.75z" fill="#7F7F7F"/><path d="m733.5 1014.2h46.627v4.58h-46.627zm46.627 2.29-9.166-13.75 27.5 13.75-27.5 13.75z" fill="#7F7F7F"/><text transform="translate(609.04 1034)" fill="#7F7F7F" font-size="55" font-weight="400">rsp</text><text transform="translate(610.76 1392)" fill="#4E95D9" font-size="55" font-weight="400">rbp</text><path d="m733.5 1371.2h46.627v4.58h-46.627zm46.627 2.29-9.166-13.75 27.5 13.75-27.5 13.75z" fill="#4E95D9"/></g></svg>
